<?xml version="1.0" encoding="utf-8"?>
<!-- Generator: Adobe Illustrator 24.0.1, SVG Export Plug-In . SVG Version: 6.00 Build 0)  -->
<svg version="1.1" id="Capa_1" xmlns="http://www.w3.org/2000/svg" xmlns:xlink="http://www.w3.org/1999/xlink" x="0px" y="0px"
	 viewBox="0 0 95 75" style="enable-background:new 0 0 95 75;" xml:space="preserve">
<style type="text/css">
	.st0{fill:#F9DC6A;}
</style>
<g>
	<path class="st0" d="M23,9.7c1.7,0,3.1,0.3,4.4,0.9c1.3,0.6,2.4,1.5,3.3,2.6c0.9,1.1,1.6,2.4,2,3.9c0.5,1.5,0.7,3,0.7,4.7
		c0,2.2-0.4,4.3-1.2,6.1c-0.8,1.8-2,3.3-3.5,4.4c-1.5,1.1-3.4,1.6-5.7,1.6h-8.3c-0.6,0-1.1-0.2-1.5-0.6c-0.4-0.4-0.6-0.9-0.6-1.5
		v-20c0-0.6,0.2-1.1,0.6-1.5c0.4-0.4,0.9-0.6,1.5-0.6H23z M22.6,30c1.5,0,2.6-0.4,3.6-1.1c0.9-0.8,1.6-1.7,2-3
		c0.4-1.2,0.6-2.6,0.6-4c0-1.1-0.1-2.1-0.4-3.1c-0.2-1-0.6-1.8-1.1-2.6c-0.5-0.7-1.2-1.3-1.9-1.8c-0.8-0.4-1.7-0.7-2.8-0.7h-6.1
		l0.3-0.3v17L16.7,30H22.6z"/>
	<path class="st0" d="M48.7,15.1l-7.5,17.6c-0.2,0.4-0.4,0.8-0.7,1c-0.3,0.2-0.7,0.4-1.1,0.4c-0.6,0-1.1-0.2-1.4-0.5
		c-0.3-0.3-0.5-0.8-0.5-1.3c0-0.2,0-0.4,0.1-0.7l8.6-20.7c0.2-0.5,0.5-0.8,0.8-1.1c0.4-0.3,0.8-0.4,1.2-0.3c0.4,0,0.8,0.1,1.2,0.4
		c0.4,0.2,0.6,0.6,0.8,1l8.5,20.3c0.1,0.3,0.2,0.6,0.2,0.8c0,0.6-0.2,1.1-0.6,1.5c-0.4,0.4-0.8,0.6-1.3,0.6c-0.4,0-0.8-0.1-1.1-0.4
		c-0.3-0.3-0.6-0.6-0.8-1l-7.4-17.3L48.7,15.1z M42.3,28.5l1.9-4h9.3l0.7,4H42.3z"/>
	<path class="st0" d="M75.5,9.7c1.7,0,3.1,0.3,4.4,0.9c1.3,0.6,2.4,1.5,3.3,2.6c0.9,1.1,1.6,2.4,2,3.9c0.5,1.5,0.7,3,0.7,4.7
		c0,2.2-0.4,4.3-1.2,6.1c-0.8,1.8-2,3.3-3.5,4.4c-1.5,1.1-3.4,1.6-5.7,1.6h-8.3c-0.6,0-1.1-0.2-1.5-0.6c-0.4-0.4-0.6-0.9-0.6-1.5
		v-20c0-0.6,0.2-1.1,0.6-1.5c0.4-0.4,0.9-0.6,1.5-0.6H75.5z M75.2,30c1.5,0,2.6-0.4,3.6-1.1c0.9-0.8,1.6-1.7,2-3
		c0.4-1.2,0.6-2.6,0.6-4c0-1.1-0.1-2.1-0.4-3.1c-0.2-1-0.6-1.8-1.1-2.6c-0.5-0.7-1.2-1.3-1.9-1.8c-0.8-0.4-1.7-0.7-2.8-0.7h-6.1
		l0.3-0.3v17L69.3,30H75.2z"/>
	<path class="st0" d="M24.7,48.2c-0.1,0-0.4,0-0.8-0.1C23.5,48,23.3,48,23.1,48c-0.4,0-0.9,0-1.4,0l0.1,1.5c0,6.1-0.4,10.5-1.2,13.3
		c-0.5,1.8-1.5,2.7-2.8,2.7c-1.4,0-2.8-0.5-4.2-1.5c-1.5-1.1-2.3-2.5-2.3-3.9c0-1,0.4-1.5,1.2-1.5s1.2,0.5,1.2,1.5
		c0,0.7,0.5,1.4,1.4,2c0.9,0.6,1.8,1,2.6,1c0.7,0,1.1-2.1,1.4-6.2c0.1-1.9,0.2-4.4,0.2-7.3c0-0.2,0-0.7-0.1-1.3l-0.7,0
		c-0.3,0-0.8,0-1.4,0c-0.6,0-1.1,0-1.5,0c-0.4,0-0.7-0.1-0.9-0.3c-0.2-0.2-0.4-0.5-0.4-0.9c0-0.8,0.6-1.3,1.7-1.3c0.3,0,0.7,0,1.2,0
		c0.5,0,1,0,1.2,0c0.5,0,1.3,0,2.3-0.1c1-0.1,1.8-0.1,2.3-0.1c1.9,0,2.8,0.5,2.8,1.4c0,0.3-0.1,0.6-0.3,0.9
		C25.3,48,25,48.2,24.7,48.2z"/>
	<path class="st0" d="M33.8,64.7c-1.4,0-2.6-0.5-3.5-1.5c-1.1-1.1-1.7-2.6-1.7-4.5c0-1.8,0.4-3.5,1.4-4.9c1.1-1.7,2.7-2.5,4.8-2.5
		c1.6,0,2.9,0.7,3.7,2.2c0.7,1.2,1,2.7,1,4.4c0,1.8-0.5,3.4-1.4,4.6C36.9,64,35.5,64.7,33.8,64.7z M34.6,53.8
		c-1.2,0-2.1,0.6-2.8,1.7c-0.5,0.9-0.8,2-0.8,3.2c0,1.2,0.3,2.1,1,2.8c0.5,0.5,1.2,0.8,1.9,0.8c0.8,0,1.6-0.3,2.2-0.9
		c0.7-0.7,1.1-1.6,1.1-2.8C37.2,55.4,36.4,53.8,34.6,53.8z"/>
	<path class="st0" d="M54.9,64.5c-0.4,0-0.8-0.2-1-0.7c-0.4-0.8-1.1-1.8-1.9-2.9l-2.2-3c-0.5,0.4-1.2,0.9-2.2,1.6
		c-0.1,1.3-0.1,2.5-0.1,3.7c0,0.4-0.1,0.7-0.3,0.9c-0.2,0.2-0.5,0.3-0.9,0.3c-0.8,0-1.2-0.6-1.2-1.7c0-0.7,0-1.7,0.1-3
		c0.1-1.4,0.1-2.4,0.1-3c0-1.2,0-2.7,0.1-4.3c0-1.6,0.1-3,0.1-4.2c0-0.4,0-0.8-0.1-1.3c0-0.5-0.1-0.9-0.1-1.3s0.1-0.7,0.3-0.9
		c0.2-0.2,0.5-0.3,0.9-0.3c0.4,0,0.6,0.1,0.9,0.3c0.2,0.2,0.3,0.5,0.3,0.9c0,0.4,0,0.8,0.1,1.3s0.1,1,0.1,1.3l-0.1,3.9
		c0,1.4-0.1,2.8,0,4.3c1.1-0.8,2.2-1.8,3.2-2.8l2.7-2.8c0.3-0.3,0.6-0.4,0.9-0.4c0.3,0,0.6,0.1,0.9,0.4c0.3,0.3,0.4,0.5,0.4,0.9
		c0,0.3-0.1,0.6-0.4,0.8c-1,1.2-2.2,2.4-3.7,3.8l2.7,3.6c1.2,1.7,1.9,2.8,1.9,3.3c0,0.3-0.1,0.6-0.4,0.8
		C55.5,64.4,55.2,64.5,54.9,64.5z"/>
	<path class="st0" d="M66.3,64.6c-1.8,0-3.3-0.5-4.5-1.4c-1.2-1-1.9-2.4-1.9-4.3c0-2.1,0.5-3.9,1.5-5.3c1.1-1.6,2.6-2.4,4.5-2.4
		c1.4,0,2.5,0.2,3.3,0.7c1.1,0.6,1.6,1.4,1.6,2.6c0,0.8-0.5,1.6-1.4,2.2c-0.4,0.3-1.3,0.8-2.6,1.4l-4.7,2.2c0.5,0.7,1,1.2,1.7,1.5
		c0.7,0.3,1.5,0.5,2.4,0.5c0.6,0,1.2-0.1,2-0.3c1-0.3,1.6-0.6,1.9-1.1c0.3-0.4,0.6-0.7,0.9-0.7c0.3,0,0.5,0.1,0.8,0.3
		c0.2,0.2,0.3,0.5,0.3,0.8c0,0.9-0.7,1.7-2.2,2.3C68.7,64.3,67.5,64.6,66.3,64.6z M66,53.4c-1,0-1.8,0.4-2.5,1.2
		c-0.7,0.8-1.2,1.9-1.5,3.5l3.8-1.8c1.5-0.7,2.5-1.3,3.2-1.9C68.2,53.8,67.2,53.4,66,53.4z"/>
	<path class="st0" d="M85.6,54.6c-0.4,0-0.8-0.2-0.9-0.5c-0.1-0.2-0.2-0.7-0.3-1.3c-0.6,0.2-1.6,0.4-2.8,0.9c-1.3,0.5-2,1.2-2,1.9
		c0.2,0.1,0.5,0.2,0.7,0.2c1.9,0.3,3.3,0.8,4.2,1.4c1.3,0.9,2,2.1,2,3.7c0,1.3-0.6,2.3-1.7,3c-1,0.6-2.2,0.8-3.6,0.8
		c-1.1,0-2.1-0.2-3.1-0.5c-1.3-0.5-1.9-1.1-1.9-1.9c0-0.3,0.1-0.6,0.4-0.9c0.3-0.2,0.5-0.4,0.9-0.4c0.3,0,0.6,0.2,1,0.6
		c0.2,0.2,0.6,0.3,1.3,0.5c0.5,0.1,1,0.1,1.4,0.1c0.7,0,1.3-0.1,1.8-0.2c0.8-0.2,1.1-0.6,1.1-1.1c0-1.1-0.8-1.9-2.3-2.3l-1.3-0.3
		c-1.1-0.2-1.9-0.5-2.3-0.8c-0.7-0.5-1-1.1-1-2.1c0-1.7,0.8-2.9,2.4-3.6c0.5-0.2,1.3-0.5,2.4-0.8c1.1-0.3,1.8-0.6,2.3-0.8
		c0.3-0.1,0.7-0.2,1.1-0.2c0.4,0,0.6,0.1,0.9,0.3c0.2,0.2,0.3,0.5,0.3,0.9c0,0.2,0.1,0.6,0.2,1c0.1,0.5,0.2,0.8,0.2,1
		c0,0.4-0.1,0.7-0.3,0.9C86.3,54.5,86,54.6,85.6,54.6z"/>
</g>
</svg>
